<?xml version="1.0" standalone="no"?>
<!DOCTYPE svg PUBLIC "-//W3C//DTD SVG 20010904//EN"
 "http://www.w3.org/TR/2001/REC-SVG-20010904/DTD/svg10.dtd">
<svg version="1.0" xmlns="http://www.w3.org/2000/svg"
 width="200.000000pt" height="200.000000pt" viewBox="0 0 200.000000 200.000000"
 preserveAspectRatio="xMidYMid meet">
<metadata>
Created by potrace 1.14, written by Peter Selinger 2001-2017
</metadata>
<g transform="translate(0.000000,200.000000) scale(0.100000,-0.100000)"
fill="#000000" stroke="none">
<path d="M0 1000 l0 -1000 1000 0 1000 0 0 1000 0 1000 -1000 0 -1000 0 0
-1000z m970 593 c0 -26 52 -361 58 -372 6 -10 35 -14 117 -15 98 -1 115 -4
153 -26 55 -31 74 -67 80 -152 l5 -68 -102 0 -101 0 0 54 c0 41 -4 55 -16 60
-25 10 -44 -13 -44 -51 0 -52 13 -68 108 -132 148 -99 168 -133 166 -287 -1
-99 -20 -138 -85 -174 -39 -22 -56 -25 -144 -25 -91 0 -104 2 -147 27 -64 38
-88 90 -88 191 l0 77 78 0 c49 0 83 5 91 12 11 10 13 10 7 1 -5 -8 -1 -13 11
-13 16 0 18 -8 15 -79 -3 -66 -1 -79 14 -85 31 -12 45 13 42 78 -3 60 -4 61
-53 98 -87 66 -157 98 -213 98 l-49 0 -7 70 c-4 39 -12 70 -17 70 -6 0 -7 -4
-4 -10 7 -11 -8 -14 -19 -3 -9 9 -36 13 -34 5 1 -4 -2 -35 -7 -69 l-8 -63
-108 0 c-60 0 -109 1 -109 3 0 1 20 148 44 327 25 179 48 352 51 385 4 33 9
63 12 68 2 4 71 7 154 7 82 0 149 -3 149 -7z"/>
<path d="M703 1558 c-9 -16 -103 -701 -96 -708 3 -3 35 -5 71 -5 l67 0 5 55
c3 30 9 61 13 68 5 7 30 12 61 12 61 0 72 -9 80 -65 3 -22 5 -41 6 -42 0 -1 6
0 14 3 11 4 13 12 5 31 -12 32 -11 129 1 175 6 21 23 51 37 69 l27 31 -28 186
c-15 103 -30 190 -32 194 -9 14 -222 10 -231 -4z m146 -115 c10 -20 14 -47 32
-230 6 -67 9 -128 6 -137 -8 -22 -109 -23 -127 -1 -9 11 -7 50 10 181 11 92
25 175 31 185 12 24 35 24 48 2z"/>
<path d="M806 1222 c-3 -5 -7 -31 -9 -58 -4 -43 -3 -50 13 -50 10 0 16 5 13
10 -4 5 1 7 10 3 14 -5 17 0 17 28 0 19 -5 35 -11 35 -5 0 -7 5 -4 10 3 6 0
10 -7 10 -9 0 -9 3 2 10 13 8 13 10 -2 10 -9 0 -19 -4 -22 -8z"/>
<path d="M1065 1172 c-28 -10 -28 -28 -1 -202 17 -112 21 -157 13 -162 -6 -4
-9 -9 -7 -11 3 -2 28 -19 55 -39 70 -50 86 -71 96 -120 17 -93 -30 -159 -91
-126 -28 15 -38 43 -39 111 l-1 47 -66 0 -66 0 4 -70 c6 -111 56 -159 176
-168 136 -9 214 39 227 139 8 66 -8 165 -33 199 -10 14 -63 55 -117 91 -53 36
-103 76 -111 90 -23 41 -18 106 11 134 28 29 42 31 73 9 17 -12 22 -25 22 -60
l0 -44 71 0 72 0 -6 56 c-7 64 -24 89 -82 115 -40 19 -156 25 -200 11z"/>
<path d="M959 1078 c-14 -54 -6 -160 14 -192 12 -17 22 -22 41 -19 31 6 30 3
10 118 -8 50 -16 98 -17 107 -1 9 -5 14 -9 12 -4 -3 -8 0 -8 5 0 28 -20 6 -31
-31z"/>
</g>
</svg>
