<svg width="361" height="361" viewBox="0 0 361 361" fill="none" xmlns="http://www.w3.org/2000/svg">
<path d="M180.344 360.088L76.1621 331.166L52.9451 70.7661H308.055L284.814 331.126L180.344 360.088V360.088Z" fill="#264DE4"/>
<path d="M264.917 314.547L284.777 92.0569H180.5V337.95L264.917 314.547V314.547Z" fill="#2965F1"/>
<path d="M106.169 188.636L109.031 220.573H180.5V188.636H106.169ZM100.417 123.995L103.32 155.932H180.5V123.995H100.417V123.995ZM180.5 271.58L180.36 271.617L144.792 262.013L142.518 236.542H110.458L114.932 286.688L180.353 304.848L180.5 304.808V271.58Z" fill="#EBEBEB"/>
<path d="M112.984 0H151.664V16.176H129.16V32.352H151.666V48.527H112.984V0ZM159.401 0H198.082V14.066H175.577V16.879H198.082V49.231H159.402V34.46H181.907V31.647H159.4V0H159.401ZM205.819 0H244.5V14.066H221.995V16.879H244.5V49.231H205.819V34.46H228.324V31.647H205.82V0H205.819Z" fill="white"/>
<path d="M254.627 188.636L260.392 123.995H180.39V155.932H225.392L222.486 188.636H180.39V220.573H219.717L216.009 261.993L180.389 271.607V304.833L245.862 286.688L246.342 281.292L253.848 197.212L254.627 188.636V188.636Z" fill="white"/>
</svg>
