<svg width="361" height="361" viewBox="0 0 361 361" fill="none" xmlns="http://www.w3.org/2000/svg">
<path d="M308.055 70.7661L284.814 331.126L180.344 360.088L76.1618 331.166L52.9448 70.7661H308.055Z" fill="#E44D26"/>
<path d="M180.5 337.95L264.917 314.547L284.777 92.0569H180.5V337.95Z" fill="#F16529"/>
<path d="M135.32 155.932H180.5V123.995H100.417L101.181 132.563L109.031 220.573H180.5V188.636H138.239L135.32 155.932V155.932ZM142.518 236.542H110.458L114.932 286.688L180.353 304.848L180.5 304.808V271.58L180.36 271.617L144.792 262.013L142.518 236.542V236.542Z" fill="#EBEBEB"/>
<path d="M76.6802 0H92.9102V16.035H107.757V0H123.988V48.558H107.758V32.298H92.9112V48.558H76.6812V0H76.6802ZM145.33 16.103H131.044V0H175.858V16.103H161.563V48.558H145.333V16.103H145.332H145.33ZM182.97 0H199.893L210.303 17.062L220.703 0H237.633V48.558H221.469V24.49L210.303 41.755H210.023L198.85 24.49V48.558H182.97V0ZM245.71 0H261.945V32.508H284.769V48.558H245.709V0H245.71Z" fill="white"/>
<path d="M180.39 220.573H219.717L216.009 261.993L180.389 271.607V304.833L245.862 286.688L246.342 281.292L253.848 197.212L254.627 188.636H180.39V220.573ZM180.39 155.854V155.932H257.533L258.173 148.754L259.629 132.563L260.392 123.995H180.39V155.855V155.854Z" fill="white"/>
</svg>
